<mxfile host="app.diagrams.net" agent="Mozilla/5.0 (Macintosh; Intel Mac OS X 10_15_7) AppleWebKit/537.36 (KHTML, like Gecko) Chrome/135.0.0.0 Safari/537.36" version="26.2.14">
  <diagram id="WI9T0HZ2pTsCkuznbFz-" name="Page-1">
    <mxGraphModel dx="1138" dy="717" grid="1" gridSize="10" guides="1" tooltips="1" connect="1" arrows="1" fold="1" page="1" pageScale="1" pageWidth="1169" pageHeight="827" math="0" shadow="0">
      <root>
        <mxCell id="0" />
        <mxCell id="1" parent="0" />
        <mxCell id="RLjyjs_sm2IHfBNOWAbh-23" value="SQL Flexible Server Database&lt;div&gt;&lt;br&gt;&lt;/div&gt;" style="aspect=fixed;html=1;perimeter=none;align=center;shadow=0;dashed=0;image;fontSize=12;image=img/lib/mscae/SQL_Database_generic.svg;labelBackgroundColor=#ffffff;fillColor=#4D9900;spacingTop=6;" parent="1" vertex="1">
          <mxGeometry x="270" y="478.5" width="61.13" height="81.5" as="geometry" />
        </mxCell>
        <mxCell id="KJ4P0MiVeHeKBC6etZE4-2" value="Users" style="sketch=0;outlineConnect=0;fontColor=#232F3E;gradientColor=none;strokeColor=#232F3E;fillColor=#ffffff;dashed=0;verticalLabelPosition=bottom;verticalAlign=top;align=center;html=1;fontSize=12;fontStyle=0;aspect=fixed;shape=mxgraph.aws4.resourceIcon;resIcon=mxgraph.aws4.users;" vertex="1" parent="1">
          <mxGeometry x="525" y="10" width="60" height="60" as="geometry" />
        </mxCell>
        <mxCell id="KJ4P0MiVeHeKBC6etZE4-7" value="" style="image;sketch=0;aspect=fixed;html=1;points=[];align=center;fontSize=12;image=img/lib/mscae/Application_Gateway.svg;" vertex="1" parent="1">
          <mxGeometry x="515" y="100" width="80" height="80" as="geometry" />
        </mxCell>
        <mxCell id="KJ4P0MiVeHeKBC6etZE4-9" value="" style="image;sketch=0;aspect=fixed;html=1;points=[];align=center;fontSize=12;image=img/lib/mscae/Traffic_Manager.svg;" vertex="1" parent="1">
          <mxGeometry x="260" y="155" width="60" height="60" as="geometry" />
        </mxCell>
        <mxCell id="KJ4P0MiVeHeKBC6etZE4-10" value="" style="image;aspect=fixed;html=1;points=[];align=center;fontSize=12;image=img/lib/azure2/compute/VM_Scale_Sets.svg;" vertex="1" parent="1">
          <mxGeometry x="770" y="365" width="98" height="98" as="geometry" />
        </mxCell>
        <mxCell id="KJ4P0MiVeHeKBC6etZE4-11" value="" style="image;aspect=fixed;html=1;points=[];align=center;fontSize=12;image=img/lib/azure2/compute/VM_Scale_Sets.svg;" vertex="1" parent="1">
          <mxGeometry x="90" y="330" width="98" height="98" as="geometry" />
        </mxCell>
        <mxCell id="KJ4P0MiVeHeKBC6etZE4-17" value="Virtual Machine Scale Set" style="text;html=1;align=center;verticalAlign=middle;whiteSpace=wrap;rounded=0;" vertex="1" parent="1">
          <mxGeometry x="109" y="433" width="60" height="30" as="geometry" />
        </mxCell>
        <mxCell id="KJ4P0MiVeHeKBC6etZE4-18" value="Traffic Manager Profile" style="text;html=1;align=center;verticalAlign=middle;whiteSpace=wrap;rounded=0;" vertex="1" parent="1">
          <mxGeometry x="260" y="230" width="60" height="30" as="geometry" />
        </mxCell>
        <mxCell id="KJ4P0MiVeHeKBC6etZE4-19" value="App Services" style="text;html=1;align=center;verticalAlign=middle;whiteSpace=wrap;rounded=0;" vertex="1" parent="1">
          <mxGeometry x="390" y="374" width="60" height="30" as="geometry" />
        </mxCell>
        <mxCell id="KJ4P0MiVeHeKBC6etZE4-20" value="Application Gateway" style="text;html=1;align=center;verticalAlign=middle;whiteSpace=wrap;rounded=0;" vertex="1" parent="1">
          <mxGeometry x="525" y="185" width="60" height="30" as="geometry" />
        </mxCell>
        <mxCell id="KJ4P0MiVeHeKBC6etZE4-21" value="Virtual Machine Scale Set" style="text;html=1;align=center;verticalAlign=middle;whiteSpace=wrap;rounded=0;" vertex="1" parent="1">
          <mxGeometry x="800" y="478.5" width="60" height="30" as="geometry" />
        </mxCell>
        <mxCell id="KJ4P0MiVeHeKBC6etZE4-22" value="Load Balancer" style="text;html=1;align=center;verticalAlign=middle;whiteSpace=wrap;rounded=0;" vertex="1" parent="1">
          <mxGeometry x="808" y="327" width="60" height="30" as="geometry" />
        </mxCell>
        <mxCell id="KJ4P0MiVeHeKBC6etZE4-26" value="" style="endArrow=classic;html=1;rounded=0;" edge="1" parent="1">
          <mxGeometry width="50" height="50" relative="1" as="geometry">
            <mxPoint x="420" y="400" as="sourcePoint" />
            <mxPoint x="331.13" y="528.5" as="targetPoint" />
            <Array as="points">
              <mxPoint x="420" y="529" />
            </Array>
          </mxGeometry>
        </mxCell>
        <mxCell id="KJ4P0MiVeHeKBC6etZE4-30" value="" style="endArrow=classic;html=1;rounded=0;entryX=-0.049;entryY=0.534;entryDx=0;entryDy=0;entryPerimeter=0;" edge="1" parent="1" target="RLjyjs_sm2IHfBNOWAbh-23">
          <mxGeometry width="50" height="50" relative="1" as="geometry">
            <mxPoint x="140" y="468.5" as="sourcePoint" />
            <mxPoint x="90" y="518.5" as="targetPoint" />
            <Array as="points">
              <mxPoint x="140" y="522" />
            </Array>
          </mxGeometry>
        </mxCell>
        <mxCell id="KJ4P0MiVeHeKBC6etZE4-32" value="" style="swimlane;startSize=0;" vertex="1" parent="1">
          <mxGeometry x="60" y="270" width="150" height="160" as="geometry" />
        </mxCell>
        <mxCell id="KJ4P0MiVeHeKBC6etZE4-23" value="Load Balancer" style="text;html=1;align=center;verticalAlign=middle;whiteSpace=wrap;rounded=0;" vertex="1" parent="KJ4P0MiVeHeKBC6etZE4-32">
          <mxGeometry x="45" y="25" width="60" height="30" as="geometry" />
        </mxCell>
        <mxCell id="KJ4P0MiVeHeKBC6etZE4-14" value="" style="image;aspect=fixed;html=1;points=[];align=center;fontSize=12;image=img/lib/azure2/networking/Load_Balancers.svg;" vertex="1" parent="KJ4P0MiVeHeKBC6etZE4-32">
          <mxGeometry x="49" y="-25" width="50" height="50" as="geometry" />
        </mxCell>
        <mxCell id="KJ4P0MiVeHeKBC6etZE4-33" value="" style="swimlane;startSize=0;" vertex="1" parent="1">
          <mxGeometry x="760" y="300" width="150" height="170" as="geometry" />
        </mxCell>
        <mxCell id="KJ4P0MiVeHeKBC6etZE4-13" value="" style="image;aspect=fixed;html=1;points=[];align=center;fontSize=12;image=img/lib/azure2/networking/Load_Balancers.svg;" vertex="1" parent="KJ4P0MiVeHeKBC6etZE4-33">
          <mxGeometry x="48" y="-30" width="60" height="60" as="geometry" />
        </mxCell>
        <mxCell id="KJ4P0MiVeHeKBC6etZE4-37" value="" style="swimlane;startSize=0;" vertex="1" parent="1">
          <mxGeometry x="350" y="290" width="130" height="80" as="geometry" />
        </mxCell>
        <mxCell id="KJ4P0MiVeHeKBC6etZE4-36" value="" style="image;aspect=fixed;html=1;points=[];align=center;fontSize=12;image=img/lib/azure2/containers/App_Services.svg;" vertex="1" parent="KJ4P0MiVeHeKBC6etZE4-37">
          <mxGeometry x="43" y="13" width="64" height="64" as="geometry" />
        </mxCell>
        <mxCell id="KJ4P0MiVeHeKBC6etZE4-39" value="" style="endArrow=classic;html=1;rounded=0;entryX=-0.033;entryY=0.483;entryDx=0;entryDy=0;entryPerimeter=0;exitX=-0.033;exitY=0.483;exitDx=0;exitDy=0;exitPerimeter=0;" edge="1" parent="1" source="KJ4P0MiVeHeKBC6etZE4-9">
          <mxGeometry width="50" height="50" relative="1" as="geometry">
            <mxPoint x="180" y="195" as="sourcePoint" />
            <mxPoint x="130" y="245" as="targetPoint" />
            <Array as="points">
              <mxPoint x="130" y="184" />
            </Array>
          </mxGeometry>
        </mxCell>
        <mxCell id="KJ4P0MiVeHeKBC6etZE4-40" value="" style="endArrow=classic;html=1;rounded=0;entryX=0.5;entryY=0;entryDx=0;entryDy=0;" edge="1" parent="1" target="KJ4P0MiVeHeKBC6etZE4-37">
          <mxGeometry width="50" height="50" relative="1" as="geometry">
            <mxPoint x="320" y="190" as="sourcePoint" />
            <mxPoint x="370" y="140" as="targetPoint" />
            <Array as="points">
              <mxPoint x="415" y="190" />
            </Array>
          </mxGeometry>
        </mxCell>
        <mxCell id="KJ4P0MiVeHeKBC6etZE4-43" value="" style="endArrow=classic;html=1;rounded=0;entryX=0.013;entryY=0.463;entryDx=0;entryDy=0;entryPerimeter=0;exitX=0.013;exitY=0.463;exitDx=0;exitDy=0;exitPerimeter=0;" edge="1" parent="1" source="KJ4P0MiVeHeKBC6etZE4-7">
          <mxGeometry width="50" height="50" relative="1" as="geometry">
            <mxPoint x="340" y="100" as="sourcePoint" />
            <mxPoint x="290" y="150" as="targetPoint" />
            <Array as="points">
              <mxPoint x="290" y="137" />
            </Array>
          </mxGeometry>
        </mxCell>
        <mxCell id="KJ4P0MiVeHeKBC6etZE4-44" value="" style="endArrow=classic;html=1;rounded=0;" edge="1" parent="1">
          <mxGeometry width="50" height="50" relative="1" as="geometry">
            <mxPoint x="594" y="140" as="sourcePoint" />
            <mxPoint x="840" y="270" as="targetPoint" />
            <Array as="points">
              <mxPoint x="840" y="140" />
            </Array>
          </mxGeometry>
        </mxCell>
      </root>
    </mxGraphModel>
  </diagram>
</mxfile>
